<mxfile host="www.draw.io" modified="2019-12-27T20:03:14.987Z" agent="Mozilla/5.0 (Macintosh; Intel Mac OS X 10_14_6) AppleWebKit/537.36 (KHTML, like Gecko) Chrome/79.0.3945.88 Safari/537.36" etag="I2TB3FIlmaxwnU-KOc1X" version="12.4.5" type="github">
  <diagram id="y_vs9HMUYshJvrWGjwXx" name="Page-1">
    <mxGraphModel dx="1186" dy="764" grid="1" gridSize="10" guides="1" tooltips="1" connect="1" arrows="1" fold="1" page="1" pageScale="1" pageWidth="850" pageHeight="1100" math="0" shadow="0">
      <root>
        <mxCell id="0"/>
        <mxCell id="1" parent="0"/>
        <mxCell id="sPKyXn1Qae5ruQcoy84M-1" value="User" style="swimlane;fontStyle=1;align=center;verticalAlign=top;childLayout=stackLayout;horizontal=1;startSize=26;horizontalStack=0;resizeParent=1;resizeParentMax=0;resizeLast=0;collapsible=1;marginBottom=0;" parent="1" vertex="1">
          <mxGeometry x="40" y="50" width="160" height="104" as="geometry"/>
        </mxCell>
        <mxCell id="sPKyXn1Qae5ruQcoy84M-2" value="+ userType: UserType&#xa;+ startDate: Date" style="text;strokeColor=none;fillColor=none;align=left;verticalAlign=top;spacingLeft=4;spacingRight=4;overflow=hidden;rotatable=0;points=[[0,0.5],[1,0.5]];portConstraint=eastwest;" parent="sPKyXn1Qae5ruQcoy84M-1" vertex="1">
          <mxGeometry y="26" width="160" height="44" as="geometry"/>
        </mxCell>
        <mxCell id="sPKyXn1Qae5ruQcoy84M-3" value="" style="line;strokeWidth=1;fillColor=none;align=left;verticalAlign=middle;spacingTop=-1;spacingLeft=3;spacingRight=3;rotatable=0;labelPosition=right;points=[];portConstraint=eastwest;" parent="sPKyXn1Qae5ruQcoy84M-1" vertex="1">
          <mxGeometry y="70" width="160" height="8" as="geometry"/>
        </mxCell>
        <mxCell id="sPKyXn1Qae5ruQcoy84M-4" value="+ method(type): type" style="text;strokeColor=none;fillColor=none;align=left;verticalAlign=top;spacingLeft=4;spacingRight=4;overflow=hidden;rotatable=0;points=[[0,0.5],[1,0.5]];portConstraint=eastwest;" parent="sPKyXn1Qae5ruQcoy84M-1" vertex="1">
          <mxGeometry y="78" width="160" height="26" as="geometry"/>
        </mxCell>
        <mxCell id="Q2zhE480mVSQyxBDlF7V-1" value="Employee" style="swimlane;fontStyle=1;align=center;verticalAlign=top;childLayout=stackLayout;horizontal=1;startSize=26;horizontalStack=0;resizeParent=1;resizeParentMax=0;resizeLast=0;collapsible=1;marginBottom=0;" vertex="1" parent="1">
          <mxGeometry x="10" y="400" width="160" height="86" as="geometry"/>
        </mxCell>
        <mxCell id="Q2zhE480mVSQyxBDlF7V-2" value="+ type: String" style="text;strokeColor=none;fillColor=none;align=left;verticalAlign=top;spacingLeft=4;spacingRight=4;overflow=hidden;rotatable=0;points=[[0,0.5],[1,0.5]];portConstraint=eastwest;" vertex="1" parent="Q2zhE480mVSQyxBDlF7V-1">
          <mxGeometry y="26" width="160" height="26" as="geometry"/>
        </mxCell>
        <mxCell id="Q2zhE480mVSQyxBDlF7V-3" value="" style="line;strokeWidth=1;fillColor=none;align=left;verticalAlign=middle;spacingTop=-1;spacingLeft=3;spacingRight=3;rotatable=0;labelPosition=right;points=[];portConstraint=eastwest;" vertex="1" parent="Q2zhE480mVSQyxBDlF7V-1">
          <mxGeometry y="52" width="160" height="8" as="geometry"/>
        </mxCell>
        <mxCell id="Q2zhE480mVSQyxBDlF7V-4" value="+ method(type): type" style="text;strokeColor=none;fillColor=none;align=left;verticalAlign=top;spacingLeft=4;spacingRight=4;overflow=hidden;rotatable=0;points=[[0,0.5],[1,0.5]];portConstraint=eastwest;" vertex="1" parent="Q2zhE480mVSQyxBDlF7V-1">
          <mxGeometry y="60" width="160" height="26" as="geometry"/>
        </mxCell>
        <mxCell id="Q2zhE480mVSQyxBDlF7V-7" value="Affiliate" style="swimlane;fontStyle=1;align=center;verticalAlign=top;childLayout=stackLayout;horizontal=1;startSize=26;horizontalStack=0;resizeParent=1;resizeParentMax=0;resizeLast=0;collapsible=1;marginBottom=0;" vertex="1" parent="1">
          <mxGeometry x="201" y="400" width="160" height="86" as="geometry"/>
        </mxCell>
        <mxCell id="Q2zhE480mVSQyxBDlF7V-8" value="+ type: String" style="text;strokeColor=none;fillColor=none;align=left;verticalAlign=top;spacingLeft=4;spacingRight=4;overflow=hidden;rotatable=0;points=[[0,0.5],[1,0.5]];portConstraint=eastwest;" vertex="1" parent="Q2zhE480mVSQyxBDlF7V-7">
          <mxGeometry y="26" width="160" height="26" as="geometry"/>
        </mxCell>
        <mxCell id="Q2zhE480mVSQyxBDlF7V-9" value="" style="line;strokeWidth=1;fillColor=none;align=left;verticalAlign=middle;spacingTop=-1;spacingLeft=3;spacingRight=3;rotatable=0;labelPosition=right;points=[];portConstraint=eastwest;" vertex="1" parent="Q2zhE480mVSQyxBDlF7V-7">
          <mxGeometry y="52" width="160" height="8" as="geometry"/>
        </mxCell>
        <mxCell id="Q2zhE480mVSQyxBDlF7V-10" value="+ method(type): type" style="text;strokeColor=none;fillColor=none;align=left;verticalAlign=top;spacingLeft=4;spacingRight=4;overflow=hidden;rotatable=0;points=[[0,0.5],[1,0.5]];portConstraint=eastwest;" vertex="1" parent="Q2zhE480mVSQyxBDlF7V-7">
          <mxGeometry y="60" width="160" height="26" as="geometry"/>
        </mxCell>
        <mxCell id="Q2zhE480mVSQyxBDlF7V-11" value="" style="endArrow=block;dashed=1;endFill=0;endSize=12;html=1;exitX=0.25;exitY=0;exitDx=0;exitDy=0;entryX=0.069;entryY=1.115;entryDx=0;entryDy=0;entryPerimeter=0;" edge="1" parent="1" source="Q2zhE480mVSQyxBDlF7V-1" target="sPKyXn1Qae5ruQcoy84M-4">
          <mxGeometry width="160" relative="1" as="geometry">
            <mxPoint x="100" y="370" as="sourcePoint"/>
            <mxPoint x="260" y="370" as="targetPoint"/>
          </mxGeometry>
        </mxCell>
        <mxCell id="Q2zhE480mVSQyxBDlF7V-12" value="" style="endArrow=block;dashed=1;endFill=0;endSize=12;html=1;exitX=0.5;exitY=0;exitDx=0;exitDy=0;entryX=0.344;entryY=1.154;entryDx=0;entryDy=0;entryPerimeter=0;" edge="1" parent="1" source="Q2zhE480mVSQyxBDlF7V-7" target="sPKyXn1Qae5ruQcoy84M-4">
          <mxGeometry width="160" relative="1" as="geometry">
            <mxPoint x="300" y="180" as="sourcePoint"/>
            <mxPoint x="250" y="140" as="targetPoint"/>
            <Array as="points">
              <mxPoint x="281" y="380"/>
              <mxPoint x="95" y="380"/>
            </Array>
          </mxGeometry>
        </mxCell>
        <mxCell id="Q2zhE480mVSQyxBDlF7V-13" value="Bill" style="swimlane;fontStyle=1;align=center;verticalAlign=top;childLayout=stackLayout;horizontal=1;startSize=26;horizontalStack=0;resizeParent=1;resizeParentMax=0;resizeLast=0;collapsible=1;marginBottom=0;" vertex="1" parent="1">
          <mxGeometry x="480" y="310" width="190" height="104" as="geometry"/>
        </mxCell>
        <mxCell id="Q2zhE480mVSQyxBDlF7V-14" value="+ total: Long&#xa;+ items: List&lt;Item&gt;" style="text;strokeColor=none;fillColor=none;align=left;verticalAlign=top;spacingLeft=4;spacingRight=4;overflow=hidden;rotatable=0;points=[[0,0.5],[1,0.5]];portConstraint=eastwest;" vertex="1" parent="Q2zhE480mVSQyxBDlF7V-13">
          <mxGeometry y="26" width="190" height="44" as="geometry"/>
        </mxCell>
        <mxCell id="Q2zhE480mVSQyxBDlF7V-15" value="" style="line;strokeWidth=1;fillColor=none;align=left;verticalAlign=middle;spacingTop=-1;spacingLeft=3;spacingRight=3;rotatable=0;labelPosition=right;points=[];portConstraint=eastwest;" vertex="1" parent="Q2zhE480mVSQyxBDlF7V-13">
          <mxGeometry y="70" width="190" height="8" as="geometry"/>
        </mxCell>
        <mxCell id="Q2zhE480mVSQyxBDlF7V-16" value="+ calculateTotal(List items): Long" style="text;strokeColor=none;fillColor=none;align=left;verticalAlign=top;spacingLeft=4;spacingRight=4;overflow=hidden;rotatable=0;points=[[0,0.5],[1,0.5]];portConstraint=eastwest;" vertex="1" parent="Q2zhE480mVSQyxBDlF7V-13">
          <mxGeometry y="78" width="190" height="26" as="geometry"/>
        </mxCell>
        <mxCell id="Q2zhE480mVSQyxBDlF7V-17" value="Item" style="swimlane;fontStyle=1;align=center;verticalAlign=top;childLayout=stackLayout;horizontal=1;startSize=26;horizontalStack=0;resizeParent=1;resizeParentMax=0;resizeLast=0;collapsible=1;marginBottom=0;" vertex="1" parent="1">
          <mxGeometry x="480" y="50" width="190" height="120" as="geometry"/>
        </mxCell>
        <mxCell id="Q2zhE480mVSQyxBDlF7V-18" value="+ name: String&#xa;+ price: Long&#xa;+ type: String" style="text;strokeColor=none;fillColor=none;align=left;verticalAlign=top;spacingLeft=4;spacingRight=4;overflow=hidden;rotatable=0;points=[[0,0.5],[1,0.5]];portConstraint=eastwest;" vertex="1" parent="Q2zhE480mVSQyxBDlF7V-17">
          <mxGeometry y="26" width="190" height="54" as="geometry"/>
        </mxCell>
        <mxCell id="Q2zhE480mVSQyxBDlF7V-19" value="" style="line;strokeWidth=1;fillColor=none;align=left;verticalAlign=middle;spacingTop=-1;spacingLeft=3;spacingRight=3;rotatable=0;labelPosition=right;points=[];portConstraint=eastwest;" vertex="1" parent="Q2zhE480mVSQyxBDlF7V-17">
          <mxGeometry y="80" width="190" height="20" as="geometry"/>
        </mxCell>
        <mxCell id="Q2zhE480mVSQyxBDlF7V-20" value="+ calculateTotal(List items): Long" style="text;strokeColor=none;fillColor=none;align=left;verticalAlign=top;spacingLeft=4;spacingRight=4;overflow=hidden;rotatable=0;points=[[0,0.5],[1,0.5]];portConstraint=eastwest;" vertex="1" parent="Q2zhE480mVSQyxBDlF7V-17">
          <mxGeometry y="100" width="190" height="20" as="geometry"/>
        </mxCell>
        <mxCell id="Q2zhE480mVSQyxBDlF7V-21" value="&lt;&lt; enumeration &gt;&gt;&#xa;UserType" style="swimlane;fontStyle=1;align=center;verticalAlign=top;childLayout=stackLayout;horizontal=1;startSize=36;horizontalStack=0;resizeParent=1;resizeParentMax=0;resizeLast=0;collapsible=1;marginBottom=0;" vertex="1" parent="1">
          <mxGeometry x="220" y="58" width="160" height="134" as="geometry"/>
        </mxCell>
        <mxCell id="Q2zhE480mVSQyxBDlF7V-22" value="EMPLOYEE&#xa;AFFILIATE&#xa;REGULAR_CUSTOMER&#xa;NEW_CUSTOMER" style="text;strokeColor=none;fillColor=none;align=left;verticalAlign=top;spacingLeft=4;spacingRight=4;overflow=hidden;rotatable=0;points=[[0,0.5],[1,0.5]];portConstraint=eastwest;" vertex="1" parent="Q2zhE480mVSQyxBDlF7V-21">
          <mxGeometry y="36" width="160" height="64" as="geometry"/>
        </mxCell>
        <mxCell id="Q2zhE480mVSQyxBDlF7V-23" value="" style="line;strokeWidth=1;fillColor=none;align=left;verticalAlign=middle;spacingTop=-1;spacingLeft=3;spacingRight=3;rotatable=0;labelPosition=right;points=[];portConstraint=eastwest;" vertex="1" parent="Q2zhE480mVSQyxBDlF7V-21">
          <mxGeometry y="100" width="160" height="8" as="geometry"/>
        </mxCell>
        <mxCell id="Q2zhE480mVSQyxBDlF7V-24" value="+ method(type): type" style="text;strokeColor=none;fillColor=none;align=left;verticalAlign=top;spacingLeft=4;spacingRight=4;overflow=hidden;rotatable=0;points=[[0,0.5],[1,0.5]];portConstraint=eastwest;" vertex="1" parent="Q2zhE480mVSQyxBDlF7V-21">
          <mxGeometry y="108" width="160" height="26" as="geometry"/>
        </mxCell>
      </root>
    </mxGraphModel>
  </diagram>
</mxfile>
